<svg width="30" height="36" viewBox="0 0 30 36" fill="none" xmlns="http://www.w3.org/2000/svg">
<path d="M24 0C25.5913 0 27.1174 0.777731 28.2426 2.1621C29.3679 3.54647 30 5.42408 30 7.38188V22.1456C30 24.1034 29.3679 25.981 28.2426 27.3654C27.1174 28.7498 25.5913 29.5275 24 29.5275H16.914L9.771 34.8C9.55588 34.9589 9.31182 35.0488 9.06116 35.0615C8.8105 35.0743 8.56123 35.0095 8.33619 34.8731C8.11114 34.7367 7.9175 34.533 7.77299 34.2807C7.62848 34.0284 7.53771 33.7355 7.509 33.4288L7.5 33.2185V29.5275H6C4.46064 29.5275 2.98016 28.7996 1.86478 27.4943C0.749407 26.189 0.0844684 24.4063 0.00750017 22.5147L0 22.1456V7.38188C0 5.42408 0.632141 3.54647 1.75736 2.1621C2.88258 0.777731 4.4087 0 6 0H24ZM19.8 17.137C19.5159 16.7945 19.1329 16.6047 18.7352 16.6096C18.3374 16.6144 17.9575 16.8135 17.679 17.1629C17.3298 17.6015 16.913 17.9499 16.453 18.1878C15.993 18.4257 15.499 18.5482 15 18.5482C14.501 18.5482 14.007 18.4257 13.547 18.1878C13.087 17.9499 12.6702 17.6015 12.321 17.1629C12.0411 16.8215 11.6632 16.6294 11.2691 16.6281C10.875 16.6267 10.4963 16.8163 10.2149 17.1557C9.93347 17.4952 9.77193 17.9573 9.76522 18.4421C9.7585 18.9269 9.90714 19.3955 10.179 19.7465C10.8075 20.5355 11.5576 21.1624 12.3854 21.5903C13.2132 22.0182 14.1021 22.2386 15 22.2386C15.8979 22.2386 16.7868 22.0182 17.6146 21.5903C18.4424 21.1624 19.1925 20.5355 19.821 19.7465C20.0994 19.397 20.2536 18.9258 20.2497 18.4364C20.2458 17.9471 20.084 17.4797 19.8 17.137ZM11.265 9.22735H11.25C10.8522 9.22735 10.4706 9.42178 10.1893 9.76788C9.90804 10.114 9.75 10.5834 9.75 11.0728C9.75 11.5623 9.90804 12.0317 10.1893 12.3778C10.4706 12.7239 10.8522 12.9183 11.25 12.9183H11.265C11.6628 12.9183 12.0444 12.7239 12.3257 12.3778C12.607 12.0317 12.765 11.5623 12.765 11.0728C12.765 10.5834 12.607 10.114 12.3257 9.76788C12.0444 9.42178 11.6628 9.22735 11.265 9.22735ZM18.765 9.22735H18.75C18.3522 9.22735 17.9706 9.42178 17.6893 9.76788C17.408 10.114 17.25 10.5834 17.25 11.0728C17.25 11.5623 17.408 12.0317 17.6893 12.3778C17.9706 12.7239 18.3522 12.9183 18.75 12.9183H18.765C19.1628 12.9183 19.5444 12.7239 19.8257 12.3778C20.107 12.0317 20.265 11.5623 20.265 11.0728C20.265 10.5834 20.107 10.114 19.8257 9.76788C19.5444 9.42178 19.1628 9.22735 18.765 9.22735Z" fill="#1F3A5F"/>
</svg>
